<?xml version="1.0" standalone="no"?>
<!DOCTYPE svg PUBLIC "-//W3C//DTD SVG 20010904//EN"
 "http://www.w3.org/TR/2001/REC-SVG-20010904/DTD/svg10.dtd">
<svg version="1.0" xmlns="http://www.w3.org/2000/svg"
 width="640.000000pt" height="640.000000pt" viewBox="0 0 640.000000 640.000000"
 preserveAspectRatio="xMidYMid meet">
<metadata>
Created by potrace 1.15, written by Peter Selinger 2001-2017
</metadata>
<g transform="translate(0.000000,640.000000) scale(0.100000,-0.100000)"
fill="#000000" stroke="none">
<path d="M0 3200 l0 -3200 3200 0 3200 0 0 3200 0 3200 -3200 0 -3200 0 0
-3200z m3455 2715 c210 -34 399 -114 540 -228 270 -217 408 -577 391 -1022
-18 -491 -172 -975 -404 -1267 -218 -273 -544 -408 -892 -370 -501 56 -837
424 -1001 1097 -93 385 -102 758 -24 1031 36 125 122 294 196 387 154 192 395
324 679 372 107 18 405 18 515 0z m-1150 -2806 c248 -259 636 -396 1013 -360
309 31 548 139 759 344 l62 61 78 -37 c118 -54 144 -64 332 -128 229 -78 337
-134 422 -219 155 -155 238 -373 323 -845 44 -242 71 -456 87 -670 24 -342 8
-366 -331 -479 -203 -67 -425 -124 -686 -175 -889 -176 -1439 -176 -2328 0
-261 51 -483 108 -686 175 -337 113 -351 130 -331 449 14 230 39 434 87 700
85 472 168 690 323 845 85 85 193 141 422 219 180 61 285 102 354 139 22 12
45 21 50 22 6 0 29 -19 50 -41z"/>
</g>
</svg>
